<svg xmlns="http://www.w3.org/2000/svg" width="32" height="32" viewBox="-0.6 -0.765 20.5 20.5" fill="none" role="img" aria-label="HayInsights">
  <path d="M9.03362 11.3816L4.23816 16.1771C3.6518 16.7635 2.69998 16.7762 2.10453 16.1998C1.42635 15.5444 0.929982 14.7089 0.682709 13.7726C-0.126382 10.7062 -0.857291 5.448 2.48453 2.53528C3.50089 1.65073 4.81453 1.05619 6.25725 0.66255C6.25089 0.678913 6.24544 0.695277 6.23907 0.71255C6.25089 0.680732 6.27816 0.658004 6.3118 0.648004C7.92453 0.214368 9.69725 0.035277 11.3991 -0.00017756C12.0882 -0.014723 12.4445 0.815277 11.9573 1.30255L4.74271 8.518C4.44544 8.81528 4.44544 9.29801 4.74271 9.59528L5.45453 10.3071C5.7518 10.6044 6.23453 10.6044 6.5318 10.3071L7.24544 9.59346C7.5418 9.2971 8.02271 9.2971 8.31816 9.59346L9.03453 10.3089C9.32998 10.6053 9.32998 11.0862 9.03453 11.3826L9.03362 11.3816Z" fill="#3CBF4F"/>
  <path d="M19.2945 2.7272C19.2773 5.46266 18.9809 10.369 17.2836 13.9854C16.7236 15.1799 16.0127 16.2336 15.1082 17.0227C12.8818 18.9627 9.87089 18.969 7.24362 18.3972C6.65907 18.2699 6.45362 17.5399 6.87635 17.1172L14.3991 9.59448C14.6963 9.2972 14.6963 8.81539 14.3991 8.51811L13.6863 7.80539C13.3891 7.50811 12.9073 7.50811 12.61 7.80539L11.8973 8.51811C11.6 8.81539 11.1182 8.81539 10.8209 8.51811L10.1082 7.80539C9.81089 7.50811 9.81089 7.0263 10.1082 6.72902L16.1145 0.723568C16.4045 0.433568 16.8136 0.292659 17.2209 0.346296C17.2227 0.346296 17.2254 0.346296 17.2273 0.346296C18.42 0.503568 19.3027 1.52357 19.2945 2.7272Z" fill="#3677D8"/>
</svg>
