<svg width="120" height="21" viewBox="0 0 120 21" fill="none" xmlns="http://www.w3.org/2000/svg">
<g clip-path="url(#clip0_455_6742)">
<path d="M9.03362 11.3816L4.23816 16.1771C3.6518 16.7635 2.69998 16.7762 2.10453 16.1998C1.42635 15.5444 0.929982 14.7089 0.682709 13.7726C-0.126382 10.7062 -0.857291 5.448 2.48453 2.53528C3.50089 1.65073 4.81453 1.05619 6.25725 0.66255C6.25089 0.678913 6.24544 0.695277 6.23907 0.71255C6.25089 0.680732 6.27816 0.658004 6.3118 0.648004C7.92453 0.214368 9.69725 0.035277 11.3991 -0.00017756C12.0882 -0.014723 12.4445 0.815277 11.9573 1.30255L4.74271 8.518C4.44544 8.81528 4.44544 9.29801 4.74271 9.59528L5.45453 10.3071C5.7518 10.6044 6.23453 10.6044 6.5318 10.3071L7.24544 9.59346C7.5418 9.2971 8.02271 9.2971 8.31816 9.59346L9.03453 10.3089C9.32998 10.6053 9.32998 11.0862 9.03453 11.3826L9.03362 11.3816Z" fill="#3CBF4F"/>
<path d="M19.2945 2.7272C19.2773 5.46266 18.9809 10.369 17.2836 13.9854C16.7236 15.1799 16.0127 16.2336 15.1082 17.0227C12.8818 18.9627 9.87089 18.969 7.24362 18.3972C6.65907 18.2699 6.45362 17.5399 6.87635 17.1172L14.3991 9.59448C14.6963 9.2972 14.6963 8.81539 14.3991 8.51811L13.6863 7.80539C13.3891 7.50811 12.9073 7.50811 12.61 7.80539L11.8973 8.51811C11.6 8.81539 11.1182 8.81539 10.8209 8.51811L10.1082 7.80539C9.81089 7.50811 9.81089 7.0263 10.1082 6.72902L16.1145 0.723568C16.4045 0.433568 16.8136 0.292659 17.2209 0.346296C17.2227 0.346296 17.2254 0.346296 17.2273 0.346296C18.42 0.503568 19.3027 1.52357 19.2945 2.7272Z" fill="#3677D8"/>
<path d="M31.0236 3.06909H33.3263V16.2809H31.0236V10.3545H25.55V16.2809H23.2473V3.06909H25.55V8.05182H31.0236V3.06909Z" fill="black"/>
<path d="M42.5654 6.84457H44.8682V16.2818H42.5654L42.4618 15.1118C42.2036 15.5337 41.8627 15.8746 41.4382 16.1355C41.0136 16.3964 40.5118 16.5273 39.9327 16.5273C39.2345 16.5273 38.58 16.3955 37.97 16.1309C37.36 15.8664 36.8236 15.5018 36.3609 15.0364C35.8982 14.5709 35.5363 14.0328 35.2754 13.4227C35.0145 12.8127 34.8836 12.1582 34.8836 11.46C34.8836 10.7618 35.0082 10.1546 35.2563 9.56275C35.5045 8.97184 35.8527 8.45275 36.2991 8.00548C36.7454 7.55911 37.2618 7.21002 37.8463 6.95821C38.4318 6.70639 39.0609 6.58093 39.7336 6.58093C40.3563 6.58093 40.9145 6.71911 41.4091 6.99639C41.9027 7.27366 42.3227 7.62548 42.6691 8.05366L42.5654 6.84548V6.84457ZM39.8754 14.3091C40.3663 14.3091 40.8 14.1864 41.1782 13.9409C41.5554 13.6955 41.8509 13.3637 42.0654 12.9455C42.2791 12.5273 42.3863 12.0664 42.3863 11.5628C42.3863 11.0591 42.2791 10.5891 42.0654 10.1709C41.8518 9.75275 41.5545 9.42093 41.1736 9.17548C40.7927 8.93002 40.36 8.8073 39.8763 8.8073C39.3927 8.8073 38.95 8.93184 38.5509 9.18002C38.1509 9.42821 37.8336 9.76002 37.5982 10.1755C37.3618 10.5909 37.2445 11.0528 37.2445 11.5628C37.2445 12.0728 37.3636 12.5346 37.6027 12.95C37.8418 13.3655 38.1609 13.6955 38.5609 13.9409C38.96 14.1864 39.3991 14.3091 39.8772 14.3091H39.8754Z" fill="black"/>
<path d="M55.1636 6.8446L50.0018 21.0001H47.5573L49.2654 16.2819L45.8682 6.8446H48.3882L50.4173 13.1301L52.72 6.8446H55.1645" fill="black"/>
<path d="M56.8264 16.2599V3.0481H59.1291V16.2599H56.8264Z" fill="black"/>
<path d="M70.3209 10.2954V16.2599H68.0182V10.8999C68.0182 10.529 67.9272 10.1908 67.7445 9.88538C67.5618 9.57992 67.3182 9.33811 67.0136 9.15901C66.7082 8.97992 66.37 8.88992 65.9991 8.88992C65.6282 8.88992 65.29 8.97992 64.9845 9.15901C64.6791 9.33811 64.4372 9.58083 64.2582 9.88538C64.0791 10.1908 63.9891 10.529 63.9891 10.8999V16.2599H61.6863L61.6772 6.82265H63.98L63.9891 7.66265C64.31 7.32265 64.6936 7.05356 65.14 6.85538C65.5863 6.6572 66.0682 6.55811 66.5836 6.55811C67.2691 6.55811 67.8954 6.72629 68.4618 7.06265C69.0282 7.39901 69.4791 7.84901 69.8163 8.41174C70.1527 8.97447 70.3209 9.60265 70.3209 10.2945V10.2954Z" fill="black"/>
<path d="M74.9918 16.43C74.5009 16.3981 74.0272 16.2991 73.5718 16.1327C73.1154 15.9663 72.7118 15.7381 72.3591 15.4481C72.0063 15.159 71.7363 14.8127 71.5472 14.41L73.4909 13.579C73.5663 13.7054 73.6891 13.8381 73.8591 13.98C74.0291 14.1218 74.2318 14.239 74.4682 14.3336C74.7036 14.4281 74.9636 14.4754 75.2463 14.4754C75.4854 14.4754 75.7136 14.4427 75.9309 14.3763C76.1481 14.31 76.3236 14.2081 76.4591 14.07C76.5945 13.9318 76.6618 13.7527 76.6618 13.5318C76.6618 13.299 76.5818 13.1181 76.4209 12.989C76.26 12.86 76.0591 12.7627 75.8172 12.6963C75.5745 12.63 75.3409 12.569 75.1145 12.5127C74.5163 12.3936 73.9618 12.2072 73.4491 11.9563C72.9363 11.7045 72.5245 11.379 72.2127 10.98C71.9009 10.5809 71.7454 10.0972 71.7454 9.53178C71.7454 8.90905 71.9109 8.37087 72.2409 7.91814C72.5709 7.46541 73.0018 7.11632 73.5336 6.87087C74.0654 6.62541 74.6391 6.50269 75.2563 6.50269C76.0045 6.50269 76.6918 6.65814 77.3181 6.96996C77.9445 7.28178 78.4391 7.71996 78.8045 8.28632L76.9827 9.36178C76.8945 9.21087 76.7718 9.07087 76.6145 8.94178C76.4572 8.81269 76.2782 8.70541 76.0763 8.62087C75.8745 8.53632 75.6645 8.48723 75.4436 8.4745C75.1609 8.46178 74.9027 8.48723 74.67 8.54996C74.4372 8.61269 74.25 8.71996 74.1081 8.87087C73.9663 9.02178 73.8954 9.22359 73.8954 9.4745C73.8954 9.72541 73.99 9.89178 74.1782 10.0081C74.3672 10.1245 74.5945 10.2145 74.8627 10.2772C75.13 10.34 75.3863 10.409 75.6318 10.4845C76.1854 10.6672 76.7063 10.89 77.1936 11.1545C77.6809 11.419 78.0727 11.7427 78.3681 12.1263C78.6636 12.51 78.8054 12.969 78.7927 13.5045C78.7927 14.1145 78.61 14.6481 78.2454 15.1045C77.8809 15.5609 77.41 15.9081 76.8345 16.1472C76.2591 16.3863 75.6436 16.4809 74.99 16.43H74.9918Z" fill="black"/>
<path d="M81.3627 5.60536C81.0227 5.60536 80.7364 5.49354 80.5036 5.26991C80.2709 5.04627 80.1545 4.76536 80.1545 4.42536C80.1545 4.08536 80.2709 3.81172 80.5036 3.58536C80.7364 3.359 81.0191 3.24536 81.3527 3.24536C81.6864 3.24536 81.9673 3.359 82.1973 3.58536C82.4273 3.81172 82.5418 4.09172 82.5418 4.42536C82.5418 4.759 82.4282 5.04718 82.2018 5.26991C81.9754 5.49354 81.6954 5.60536 81.3618 5.60536H81.3627ZM80.1918 6.82263H82.4945V16.2599H80.1918V6.82263Z" fill="black"/>
<path d="M91.5454 6.82266H93.8481V16.439C93.8481 17.1181 93.71 17.7363 93.4327 18.2936C93.1554 18.8499 92.7781 19.3281 92.3 19.7281C91.8218 20.1272 91.2745 20.4363 90.6581 20.6527C90.0418 20.8699 89.3936 20.9781 88.7145 20.9781C88.0354 20.9781 87.4182 20.8427 86.8082 20.5727C86.1982 20.3017 85.6582 19.9327 85.19 19.4636C84.7209 18.9945 84.3645 18.4617 84.1191 17.8636L86.2236 16.9108C86.3491 17.2572 86.54 17.5608 86.7945 17.8217C87.0491 18.0827 87.3436 18.2872 87.6772 18.4354C88.0109 18.5836 88.3563 18.6572 88.7154 18.6572C89.0745 18.6572 89.4309 18.6072 89.7672 18.5063C90.1036 18.4054 90.4072 18.259 90.6782 18.0672C90.9482 17.8754 91.1609 17.6427 91.3154 17.369C91.4691 17.0954 91.5463 16.7854 91.5463 16.439V15.1081C91.2509 15.5236 90.8791 15.8599 90.4327 16.1181C89.9863 16.3763 89.47 16.5054 88.8854 16.5054C88.2063 16.5054 87.57 16.3763 86.9791 16.1181C86.3872 15.8599 85.8672 15.5036 85.4172 15.0472C84.9672 14.5908 84.6154 14.0645 84.36 13.4663C84.1054 12.869 83.9781 12.2272 83.9781 11.5408C83.9781 10.8545 84.1054 10.2136 84.36 9.61539C84.6145 9.01811 84.9672 8.49084 85.4172 8.03448C85.8672 7.57811 86.3872 7.22175 86.9791 6.96357C87.57 6.70539 88.2063 6.57629 88.8854 6.57629C89.4709 6.57629 89.9863 6.70357 90.4327 6.95811C90.8791 7.21266 91.2509 7.54811 91.5463 7.96357V6.82175L91.5454 6.82266ZM88.9118 14.2872C89.3963 14.2872 89.8254 14.1627 90.2 13.9145C90.5745 13.6663 90.8681 13.3327 91.0827 12.9145C91.2963 12.4963 91.4036 12.0381 91.4036 11.5417C91.4036 11.0454 91.2954 10.579 91.0781 10.1636C90.8609 9.74811 90.5654 9.41539 90.1909 9.16357C89.8163 8.91175 89.39 8.78629 88.9118 8.78629C88.4336 8.78629 88.0091 8.91084 87.6191 9.15902C87.2291 9.4072 86.9172 9.73902 86.6845 10.1545C86.4518 10.5699 86.3354 11.0317 86.3354 11.5417C86.3354 12.0517 86.4518 12.5136 86.6845 12.929C86.9172 13.3445 87.2291 13.6745 87.6191 13.9199C88.0091 14.1654 88.44 14.2881 88.9118 14.2881V14.2872Z" fill="black"/>
<path d="M104.756 10.2954V16.2599H102.454V10.8999C102.454 10.529 102.363 10.1909 102.18 9.8854C101.997 9.57995 101.754 9.33813 101.449 9.15904C101.144 8.97995 100.805 8.88995 100.435 8.88995C100.064 8.88995 99.7255 8.97995 99.42 9.15904C99.1146 9.33813 98.8727 9.58085 98.6936 9.8854C98.5146 10.1909 98.4246 10.529 98.4246 10.8999V16.2599H96.1218L96.1127 2.10449H98.4155L98.4246 7.66267C98.7455 7.32267 99.1291 7.05358 99.5755 6.8554C100.022 6.65722 100.504 6.55813 101.019 6.55813C101.705 6.55813 102.331 6.72631 102.897 7.06267C103.464 7.39904 103.915 7.84904 104.252 8.41176C104.588 8.97449 104.756 9.60267 104.756 10.2945V10.2954Z" fill="black"/>
<path d="M111.703 9.12537H109.872V16.2599H107.569V9.12537H106.173V6.82265H107.569V3.85901H109.872V6.82265H111.703V9.12537Z" fill="black"/>
<path d="M116.044 16.43C115.553 16.3981 115.079 16.2991 114.624 16.1327C114.167 15.9663 113.764 15.7381 113.411 15.4481C113.058 15.159 112.788 14.8127 112.599 14.41L114.543 13.579C114.618 13.7054 114.741 13.8381 114.911 13.98C115.081 14.1218 115.284 14.239 115.52 14.3336C115.755 14.4281 116.015 14.4754 116.298 14.4754C116.537 14.4754 116.765 14.4427 116.983 14.3763C117.2 14.31 117.375 14.2081 117.511 14.07C117.646 13.9318 117.714 13.7527 117.714 13.5318C117.714 13.299 117.634 13.1181 117.473 12.989C117.312 12.86 117.111 12.7627 116.869 12.6963C116.626 12.63 116.393 12.569 116.166 12.5127C115.568 12.3936 115.014 12.2072 114.501 11.9563C113.988 11.7045 113.576 11.379 113.265 10.98C112.953 10.5809 112.797 10.0972 112.797 9.53178C112.797 8.90905 112.963 8.37087 113.293 7.91814C113.623 7.46541 114.054 7.11632 114.585 6.87087C115.117 6.62541 115.691 6.50269 116.308 6.50269C117.056 6.50269 117.744 6.65814 118.37 6.96996C118.996 7.28178 119.491 7.71996 119.856 8.28632L118.035 9.36178C117.946 9.21087 117.824 9.07087 117.666 8.94178C117.509 8.81269 117.33 8.70541 117.128 8.62087C116.926 8.53632 116.716 8.48723 116.495 8.4745C116.213 8.46178 115.955 8.48723 115.722 8.54996C115.489 8.61269 115.302 8.71996 115.16 8.87087C115.018 9.02178 114.947 9.22359 114.947 9.4745C114.947 9.72541 115.042 9.89178 115.23 10.0081C115.419 10.1245 115.646 10.2145 115.915 10.2772C116.182 10.34 116.438 10.409 116.684 10.4845C117.237 10.6672 117.758 10.89 118.245 11.1545C118.733 11.419 119.125 11.7427 119.42 12.1263C119.715 12.51 119.857 12.969 119.845 13.5045C119.845 14.1145 119.662 14.6481 119.297 15.1045C118.933 15.5609 118.462 15.9081 117.886 16.1472C117.311 16.3863 116.695 16.4809 116.042 16.43H116.044Z" fill="black"/>
</g>
<defs>
<clipPath id="clip0_455_6742">
<rect width="119.818" height="21" fill="white"/>
</clipPath>
</defs>
</svg>
