<svg width="120" height="21" viewBox="0 0 120 21" fill="none" xmlns="http://www.w3.org/2000/svg">
<g clip-path="url(#clip0_536_610)">
<path d="M9.03368 11.3817L4.23822 16.1771C3.65186 16.7635 2.70004 16.7762 2.10459 16.1999C1.42641 15.5444 0.930043 14.709 0.68277 13.7726C-0.126321 10.7062 -0.85723 5.44805 2.48459 2.53532C3.50095 1.65078 4.81459 1.05623 6.25732 0.662596C6.25095 0.678959 6.2455 0.695323 6.23913 0.712596C6.25095 0.680777 6.27822 0.65805 6.31186 0.64805C7.92459 0.214414 9.69732 0.0353228 11.3991 -0.000131784C12.0882 -0.0146772 12.4446 0.815323 11.9573 1.3026L4.74277 8.51805C4.4455 8.81532 4.4455 9.29805 4.74277 9.59532L5.45459 10.3071C5.75186 10.6044 6.23459 10.6044 6.53186 10.3071L7.2455 9.5935C7.54186 9.29714 8.02277 9.29714 8.31822 9.5935L9.03459 10.309C9.33004 10.6053 9.33004 11.0862 9.03459 11.3826L9.03368 11.3817Z" fill="#3CBF4F"/>
<path d="M19.2947 2.72727C19.2774 5.46272 18.9811 10.3691 17.2838 13.9854C16.7238 15.18 16.0129 16.2336 15.1083 17.0227C12.882 18.9627 9.87107 18.9691 7.2438 18.3973C6.65926 18.27 6.4538 17.54 6.87653 17.1173L14.3993 9.59454C14.6965 9.29727 14.6965 8.81545 14.3993 8.51818L13.6865 7.80545C13.3893 7.50818 12.9074 7.50818 12.6102 7.80545L11.8974 8.51818C11.6002 8.81545 11.1183 8.81545 10.8211 8.51818L10.1083 7.80545C9.81107 7.50818 9.81107 7.02636 10.1083 6.72908L16.1147 0.72363C16.4047 0.43363 16.8138 0.29272 17.2211 0.346357C17.2229 0.346357 17.2256 0.346357 17.2274 0.346357C18.4202 0.50363 19.3029 1.52363 19.2947 2.72727Z" fill="#3677D8"/>
<path d="M31.0237 3.06909H33.3264V16.2809H31.0237V10.3545H25.55V16.2809H23.2473V3.06909H25.55V8.05182H31.0237V3.06909Z" fill="white"/>
<path d="M42.5656 6.84455H44.8683V16.2818H42.5656L42.462 15.1118C42.2038 15.5336 41.8629 15.8746 41.4383 16.1355C41.0138 16.3964 40.512 16.5273 39.9329 16.5273C39.2347 16.5273 38.5802 16.3955 37.9702 16.1309C37.3602 15.8664 36.8238 15.5018 36.3611 15.0364C35.8983 14.5709 35.5365 14.0327 35.2756 13.4227C35.0147 12.8127 34.8838 12.1582 34.8838 11.46C34.8838 10.7618 35.0083 10.1546 35.2565 9.56274C35.5047 8.97183 35.8529 8.45274 36.2992 8.00546C36.7456 7.5591 37.262 7.21001 37.8465 6.95819C38.432 6.70637 39.0611 6.58092 39.7338 6.58092C40.3565 6.58092 40.9147 6.7191 41.4092 6.99637C41.9029 7.27364 42.3229 7.62546 42.6692 8.05364L42.5656 6.84546V6.84455ZM39.8756 14.3091C40.3665 14.3091 40.8002 14.1864 41.1783 13.9409C41.5556 13.6955 41.8511 13.3636 42.0656 12.9455C42.2792 12.5273 42.3865 12.0664 42.3865 11.5627C42.3865 11.0591 42.2792 10.5891 42.0656 10.1709C41.852 9.75274 41.5547 9.42092 41.1738 9.17546C40.7929 8.93001 40.3602 8.80728 39.8765 8.80728C39.3929 8.80728 38.9502 8.93183 38.5511 9.18001C38.1511 9.42819 37.8338 9.76001 37.5983 10.1755C37.362 10.5909 37.2447 11.0527 37.2447 11.5627C37.2447 12.0727 37.3638 12.5346 37.6029 12.95C37.842 13.3655 38.1611 13.6955 38.5611 13.9409C38.9602 14.1864 39.3992 14.3091 39.8774 14.3091H39.8756Z" fill="white"/>
<path d="M55.1636 6.84454L50.0018 21H47.5573L49.2654 16.2818L45.8682 6.84454H48.3882L50.4173 13.13L52.72 6.84454H55.1645" fill="white"/>
<path d="M56.8264 16.26V3.04817H59.1291V16.26H56.8264Z" fill="white"/>
<path d="M70.3209 10.2954V16.26H68.0182V10.9C68.0182 10.5291 67.9272 10.1909 67.7445 9.88544C67.5618 9.57998 67.3182 9.33817 67.0136 9.15908C66.7082 8.97998 66.37 8.88998 65.9991 8.88998C65.6282 8.88998 65.29 8.97998 64.9845 9.15908C64.6791 9.33817 64.4372 9.58089 64.2582 9.88544C64.0791 10.1909 63.9891 10.5291 63.9891 10.9V16.26H61.6863L61.6772 6.82271H63.98L63.9891 7.66271C64.31 7.32271 64.6936 7.05362 65.14 6.85544C65.5863 6.65726 66.0682 6.55817 66.5836 6.55817C67.2691 6.55817 67.8954 6.72635 68.4618 7.06271C69.0282 7.39908 69.4791 7.84908 69.8163 8.4118C70.1527 8.97453 70.3209 9.60271 70.3209 10.2945V10.2954Z" fill="white"/>
<path d="M74.9919 16.43C74.501 16.3982 74.0274 16.2991 73.5719 16.1327C73.1155 15.9664 72.7119 15.7382 72.3592 15.4482C72.0065 15.1591 71.7365 14.8127 71.5474 14.41L73.491 13.5791C73.5665 13.7054 73.6892 13.8382 73.8592 13.98C74.0292 14.1218 74.2319 14.2391 74.4683 14.3336C74.7037 14.4282 74.9637 14.4754 75.2465 14.4754C75.4855 14.4754 75.7137 14.4427 75.931 14.3764C76.1483 14.31 76.3237 14.2082 76.4592 14.07C76.5946 13.9318 76.6619 13.7527 76.6619 13.5318C76.6619 13.2991 76.5819 13.1182 76.421 12.9891C76.2601 12.86 76.0592 12.7627 75.8174 12.6964C75.5746 12.63 75.341 12.5691 75.1146 12.5127C74.5165 12.3936 73.9619 12.2073 73.4492 11.9564C72.9365 11.7045 72.5246 11.3791 72.2128 10.98C71.901 10.5809 71.7455 10.0973 71.7455 9.53181C71.7455 8.90908 71.911 8.3709 72.241 7.91817C72.571 7.46544 73.0019 7.11635 73.5337 6.8709C74.0655 6.62544 74.6392 6.50272 75.2565 6.50272C76.0046 6.50272 76.6919 6.65817 77.3183 6.96999C77.9446 7.28181 78.4392 7.71999 78.8046 8.28635L76.9828 9.36181C76.8946 9.2109 76.7719 9.0709 76.6146 8.94181C76.4574 8.81272 76.2783 8.70544 76.0765 8.6209C75.8746 8.53635 75.6646 8.48726 75.4437 8.47453C75.161 8.46181 74.9028 8.48726 74.6701 8.54999C74.4374 8.61272 74.2501 8.71999 74.1083 8.8709C73.9665 9.02181 73.8955 9.22363 73.8955 9.47453C73.8955 9.72544 73.9901 9.89181 74.1783 10.0082C74.3674 10.1245 74.5946 10.2145 74.8628 10.2773C75.1301 10.34 75.3865 10.4091 75.6319 10.4845C76.1855 10.6673 76.7065 10.89 77.1937 11.1545C77.681 11.4191 78.0728 11.7427 78.3683 12.1264C78.6637 12.51 78.8055 12.9691 78.7928 13.5045C78.7928 14.1145 78.6101 14.6482 78.2455 15.1045C77.881 15.5609 77.4101 15.9082 76.8346 16.1473C76.2592 16.3864 75.6437 16.4809 74.9901 16.43H74.9919Z" fill="white"/>
<path d="M81.3627 5.60545C81.0227 5.60545 80.7364 5.49363 80.5036 5.27C80.2709 5.04636 80.1545 4.76545 80.1545 4.42545C80.1545 4.08545 80.2709 3.81182 80.5036 3.58545C80.7364 3.35909 81.0191 3.24545 81.3527 3.24545C81.6864 3.24545 81.9673 3.35909 82.1973 3.58545C82.4273 3.81182 82.5418 4.09182 82.5418 4.42545C82.5418 4.75909 82.4282 5.04727 82.2018 5.27C81.9754 5.49363 81.6954 5.60545 81.3618 5.60545H81.3627ZM80.1918 6.82273H82.4945V16.26H80.1918V6.82273Z" fill="white"/>
<path d="M91.5455 6.82272H93.8483V16.4391C93.8483 17.1182 93.7101 17.7364 93.4328 18.2936C93.1555 18.85 92.7783 19.3282 92.3001 19.7282C91.8219 20.1273 91.2746 20.4364 90.6583 20.6527C90.0419 20.87 89.3937 20.9782 88.7146 20.9782C88.0355 20.9782 87.4183 20.8427 86.8083 20.5727C86.1983 20.3018 85.6583 19.9327 85.1901 19.4636C84.721 18.9945 84.3646 18.4618 84.1192 17.8636L86.2237 16.9109C86.3492 17.2573 86.5401 17.5609 86.7946 17.8218C87.0492 18.0827 87.3437 18.2873 87.6774 18.4354C88.011 18.5836 88.3565 18.6573 88.7155 18.6573C89.0746 18.6573 89.431 18.6073 89.7674 18.5064C90.1037 18.4054 90.4074 18.2591 90.6783 18.0673C90.9483 17.8754 91.161 17.6427 91.3155 17.3691C91.4692 17.0954 91.5465 16.7854 91.5465 16.4391V15.1082C91.251 15.5236 90.8792 15.86 90.4328 16.1182C89.9865 16.3764 89.4701 16.5054 88.8855 16.5054C88.2065 16.5054 87.5701 16.3764 86.9792 16.1182C86.3874 15.86 85.8674 15.5036 85.4174 15.0473C84.9674 14.5909 84.6155 14.0645 84.3601 13.4664C84.1055 12.8691 83.9783 12.2273 83.9783 11.5409C83.9783 10.8545 84.1055 10.2136 84.3601 9.61545C84.6146 9.01817 84.9674 8.4909 85.4174 8.03454C85.8674 7.57817 86.3874 7.22181 86.9792 6.96363C87.5701 6.70545 88.2065 6.57635 88.8855 6.57635C89.471 6.57635 89.9865 6.70363 90.4328 6.95817C90.8792 7.21272 91.251 7.54817 91.5465 7.96363V6.82181L91.5455 6.82272ZM88.9119 14.2873C89.3965 14.2873 89.8255 14.1627 90.2001 13.9145C90.5746 13.6664 90.8683 13.3327 91.0828 12.9145C91.2965 12.4964 91.4037 12.0382 91.4037 11.5418C91.4037 11.0454 91.2955 10.5791 91.0783 10.1636C90.861 9.74817 90.5655 9.41545 90.191 9.16363C89.8165 8.91181 89.3901 8.78636 88.9119 8.78636C88.4337 8.78636 88.0092 8.9109 87.6192 9.15908C87.2292 9.40726 86.9174 9.73908 86.6846 10.1545C86.4519 10.57 86.3355 11.0318 86.3355 11.5418C86.3355 12.0518 86.4519 12.5136 86.6846 12.9291C86.9174 13.3445 87.2292 13.6745 87.6192 13.92C88.0092 14.1654 88.4401 14.2882 88.9119 14.2882V14.2873Z" fill="white"/>
<path d="M104.756 10.2954V16.26H102.454V10.9C102.454 10.5291 102.363 10.1909 102.18 9.88545C101.997 9.57999 101.754 9.33817 101.449 9.15908C101.144 8.97999 100.806 8.88999 100.435 8.88999C100.064 8.88999 99.7255 8.97999 99.4201 9.15908C99.1146 9.33817 98.8728 9.5809 98.6937 9.88545C98.5146 10.1909 98.4246 10.5291 98.4246 10.9V16.26H96.1219L96.1128 2.10454H98.4155L98.4246 7.66272C98.7455 7.32272 99.1292 7.05363 99.5755 6.85545C100.022 6.65727 100.504 6.55817 101.019 6.55817C101.705 6.55817 102.331 6.72636 102.897 7.06272C103.464 7.39908 103.915 7.84908 104.252 8.41181C104.588 8.97454 104.756 9.60272 104.756 10.2945V10.2954Z" fill="white"/>
<path d="M111.703 9.12545H109.872V16.26H107.569V9.12545H106.173V6.82272H107.569V3.85909H109.872V6.82272H111.703V9.12545Z" fill="white"/>
<path d="M116.044 16.43C115.553 16.3982 115.079 16.2991 114.624 16.1327C114.167 15.9664 113.764 15.7382 113.411 15.4482C113.058 15.1591 112.788 14.8127 112.599 14.41L114.543 13.5791C114.618 13.7054 114.741 13.8382 114.911 13.98C115.081 14.1218 115.284 14.2391 115.52 14.3336C115.755 14.4282 116.015 14.4754 116.298 14.4754C116.537 14.4754 116.765 14.4427 116.983 14.3764C117.2 14.31 117.375 14.2082 117.511 14.07C117.646 13.9318 117.714 13.7527 117.714 13.5318C117.714 13.2991 117.634 13.1182 117.473 12.9891C117.312 12.86 117.111 12.7627 116.869 12.6964C116.626 12.63 116.393 12.5691 116.166 12.5127C115.568 12.3936 115.014 12.2073 114.501 11.9564C113.988 11.7045 113.576 11.3791 113.265 10.98C112.953 10.5809 112.797 10.0973 112.797 9.53181C112.797 8.90908 112.963 8.3709 113.293 7.91817C113.623 7.46544 114.054 7.11635 114.585 6.8709C115.117 6.62544 115.691 6.50272 116.308 6.50272C117.056 6.50272 117.744 6.65817 118.37 6.96999C118.996 7.28181 119.491 7.71999 119.856 8.28635L118.035 9.36181C117.946 9.2109 117.824 9.0709 117.666 8.94181C117.509 8.81272 117.33 8.70544 117.128 8.6209C116.926 8.53635 116.716 8.48726 116.495 8.47453C116.213 8.46181 115.955 8.48726 115.722 8.54999C115.489 8.61272 115.302 8.71999 115.16 8.8709C115.018 9.02181 114.947 9.22363 114.947 9.47453C114.947 9.72544 115.042 9.89181 115.23 10.0082C115.419 10.1245 115.646 10.2145 115.915 10.2773C116.182 10.34 116.438 10.4091 116.684 10.4845C117.237 10.6673 117.758 10.89 118.245 11.1545C118.733 11.4191 119.125 11.7427 119.42 12.1264C119.715 12.51 119.857 12.9691 119.845 13.5045C119.845 14.1145 119.662 14.6482 119.297 15.1045C118.933 15.5609 118.462 15.9082 117.886 16.1473C117.311 16.3864 116.695 16.4809 116.042 16.43H116.044Z" fill="white"/>
</g>
<defs>
<clipPath id="clip0_536_610">
<rect width="119.818" height="21" fill="white"/>
</clipPath>
</defs>
</svg>
